<svg width="40" height="40" viewBox="0 0 40 40" fill="none" xmlns="http://www.w3.org/2000/svg">
<path d="M36.8072 34.0529C34.3201 29.8445 30.4874 26.8268 26.0145 25.3963C28.227 24.1072 29.9459 22.1429 30.9074 19.8051C31.8689 17.4672 32.0197 14.8851 31.3367 12.4553C30.6536 10.0254 29.1745 7.88219 27.1265 6.35472C25.0785 4.82726 22.5749 4 20 4C17.4251 4 14.9215 4.82726 12.8735 6.35472C10.8255 7.88219 9.34637 10.0254 8.66334 12.4553C7.98032 14.8851 8.13111 17.4672 9.09258 19.8051C10.054 22.1429 11.773 24.1072 13.9855 25.3963C9.51262 26.8252 5.67988 29.8429 3.19276 34.0529C3.10155 34.1984 3.04105 34.3604 3.01484 34.5292C2.98862 34.698 2.99721 34.8702 3.04011 35.0357C3.08301 35.2013 3.15934 35.3567 3.2646 35.4928C3.36986 35.629 3.50192 35.7432 3.65299 35.8286C3.80406 35.914 3.97107 35.9689 4.14418 35.9901C4.31729 36.0113 4.49298 35.9984 4.6609 35.952C4.82881 35.9057 4.98554 35.8269 5.12185 35.7204C5.25815 35.6138 5.37127 35.4816 5.45452 35.3315C8.53116 30.1274 13.9692 27.0202 20 27.0202C26.0308 27.0202 31.4688 30.1274 34.5455 35.3315C34.6287 35.4816 34.7418 35.6138 34.8782 35.7204C35.0145 35.8269 35.1712 35.9057 35.3391 35.952C35.507 35.9984 35.6827 36.0113 35.8558 35.9901C36.0289 35.9689 36.1959 35.914 36.347 35.8286C36.4981 35.7432 36.6301 35.629 36.7354 35.4928C36.8407 35.3567 36.917 35.2013 36.9599 35.0357C37.0028 34.8702 37.0114 34.698 36.9852 34.5292C36.9589 34.3604 36.8984 34.1984 36.8072 34.0529ZM10.855 15.5123C10.855 13.742 11.3913 12.0115 12.3962 10.5396C13.4011 9.06767 14.8293 7.92044 16.5004 7.24299C18.1714 6.56554 20.0101 6.38829 21.7841 6.73365C23.5581 7.07901 25.1875 7.93148 26.4665 9.18324C27.7455 10.435 28.6164 12.0299 28.9693 13.7661C29.3222 15.5024 29.1411 17.302 28.4489 18.9375C27.7567 20.5731 26.5846 21.9709 25.0807 22.9545C23.5768 23.938 21.8087 24.4629 20 24.4629C17.5754 24.4604 15.2508 23.5165 13.5364 21.8385C11.8219 20.1605 10.8576 17.8854 10.855 15.5123Z" fill="black"/>
</svg>
