<svg width="40" height="40" viewBox="0 0 40 40" fill="none" xmlns="http://www.w3.org/2000/svg">
<path d="M35.7625 4.09239C35.5689 3.92515 35.3332 3.81393 35.081 3.7707C34.8288 3.72747 34.5696 3.75388 34.3313 3.84708L2.66565 16.2393C2.21688 16.4138 1.83694 16.7293 1.58304 17.1385C1.32913 17.5476 1.215 18.0281 1.25783 18.5077C1.30066 18.9873 1.49814 19.44 1.82052 19.7977C2.1429 20.1553 2.57275 20.3986 3.04534 20.4908L11.25 22.1018V31.2502C11.2484 31.7485 11.3965 32.2358 11.6751 32.649C11.9537 33.0621 12.35 33.3821 12.8125 33.5674C13.2744 33.756 13.7823 33.8013 14.2703 33.6973C14.7582 33.5934 15.2036 33.345 15.5485 32.9846L19.5047 28.8814L25.7813 34.3752C26.2341 34.7769 26.8182 34.9991 27.4235 35.0002C27.6887 35 27.9523 34.9583 28.2047 34.8768C28.6171 34.7459 28.9881 34.5093 29.2806 34.1904C29.5731 33.8716 29.777 33.4817 29.8719 33.0596L36.2141 5.46895C36.2708 5.22012 36.2588 4.96055 36.1792 4.71805C36.0997 4.47555 35.9556 4.25927 35.7625 4.09239ZM26.2094 9.71739L12.211 19.7424L4.46097 18.2221L26.2094 9.71739ZM13.75 31.2502V23.8315L17.6235 27.2283L13.75 31.2502ZM27.4266 32.5002L14.5078 21.1721L33.1016 7.84551L27.4266 32.5002Z" fill="black"/>
</svg>
